<svg width="2357" height="496" viewBox="0 0 2357 496" fill="none" xmlns="http://www.w3.org/2000/svg">
<rect width="2357" height="496" rx="60" fill="#50BFA5"/>
<path d="M696.275 114.751L802.338 48V181.502L696.275 114.751Z" fill="white"/>
<path d="M802.614 314.327L908.685 247.567V381.078L802.614 314.327Z" fill="#96D9C9"/>
<path d="M696.275 381.24L802.338 314.489V448L696.275 381.24Z" fill="#96D9C9"/>
<path d="M908.953 247.996L802.89 314.755V181.245L908.953 247.996Z" fill="white"/>
<path d="M802.071 181.674L696 248.425V114.923L802.071 181.674Z" fill="#96D9C9"/>
<path d="M802.071 314.919L696 381.67V248.167L802.071 314.919Z" fill="white"/>
<path d="M908.953 381.24L802.89 448V314.489L908.953 381.24Z" fill="white"/>
<path d="M931.052 163.935C931.052 180.171 919.231 189.574 896.577 189.574H852V95.6162H894.112C915.663 95.6162 926.739 105.41 926.739 120.045C926.822 124.317 925.789 128.528 923.763 132.186C921.736 135.844 918.798 138.8 915.29 140.709C924.898 144.067 931.052 152.119 931.052 163.935ZM871.824 111.956V134.097H891.675C901.404 134.097 906.699 130.34 906.699 122.96C906.699 115.58 901.377 111.956 891.675 111.956H871.824ZM910.978 161.625C910.978 153.706 905.439 149.942 895.094 149.942H871.824V173.212H895.094C905.439 173.212 910.978 169.706 910.978 161.654V161.625Z" fill="white"/>
<path d="M1004.81 189.574L988.188 163.396H969.84V189.574H949.901V95.6162H987.213C1010.23 95.6162 1024.65 108.635 1024.65 129.705C1024.65 143.802 1018.12 154.134 1006.92 159.367L1026.25 189.574H1004.81ZM986.09 113.329H969.84V146.082H986.09C998.276 146.082 1004.44 139.905 1004.44 129.705C1004.44 119.373 998.283 113.329 986.09 113.329Z" fill="white"/>
<path d="M1100.88 169.441H1060.83L1053.2 189.574H1032.76L1071.17 95.6162H1090.88L1129.42 189.574H1108.49L1100.88 169.441ZM1094.6 152.931L1080.93 116.952L1067.23 152.931H1094.6Z" fill="white"/>
<path d="M1142.1 95.6162H1162.05V189.574H1142.1V95.6162Z" fill="white"/>
<path d="M1265.24 95.6162V189.574H1248.86L1205.89 132.525V189.574H1186.19V95.6162H1202.69L1245.54 152.658V95.6162H1265.24Z" fill="white"/>
<path d="M1289.37 95.6162H1309.32V171.854H1352.53V189.566H1289.37V95.6162Z" fill="white"/>
<path d="M1399.94 156.282V189.574H1380V156.016L1346.65 95.6162H1367.83L1390.85 137.359L1413.87 95.6162H1433.45L1399.94 156.282Z" fill="white"/>
<path d="M1465.45 113.329H1437.87V95.6162H1512.98V113.329H1485.4V189.574H1465.45V113.329Z" fill="white"/>
<path d="M1531.08 95.6162H1551.03V189.574H1531.08V95.6162Z" fill="white"/>
<path d="M1569.75 142.591C1569.75 114.273 1589.69 94 1616.54 94C1631.43 94 1643.88 99.9042 1652 110.642L1639.2 123.528C1633.41 116.281 1626.14 112.524 1617.53 112.524C1601.4 112.524 1589.95 124.871 1589.95 142.591C1589.95 160.311 1601.4 172.658 1617.53 172.658C1626.15 172.658 1633.42 168.902 1639.2 161.522L1652 174.4C1643.88 185.279 1631.44 191.183 1616.41 191.183C1589.71 191.183 1569.75 170.917 1569.75 142.591Z" fill="white"/>
<path d="M943.068 296H932.523L948.591 249.455H961.273L977.318 296H966.773L955.114 260.091H954.75L943.068 296ZM942.409 277.705H967.318V285.386H942.409V277.705ZM992.42 275.818V296H982.739V261.091H991.966V267.25H992.375C993.148 265.22 994.443 263.614 996.261 262.432C998.08 261.235 1000.28 260.636 1002.88 260.636C1005.3 260.636 1007.41 261.167 1009.22 262.227C1011.02 263.288 1012.42 264.803 1013.42 266.773C1014.42 268.727 1014.92 271.061 1014.92 273.773V296H1005.24V275.5C1005.25 273.364 1004.71 271.697 1003.6 270.5C1002.5 269.288 1000.97 268.682 999.034 268.682C997.731 268.682 996.58 268.962 995.58 269.523C994.595 270.083 993.822 270.902 993.261 271.977C992.716 273.038 992.436 274.318 992.42 275.818ZM1047.39 249.455V296H1037.55V249.455H1047.39ZM1064.98 275.818V296H1055.3V261.091H1064.53V267.25H1064.94C1065.71 265.22 1067.01 263.614 1068.82 262.432C1070.64 261.235 1072.85 260.636 1075.44 260.636C1077.86 260.636 1079.98 261.167 1081.78 262.227C1083.58 263.288 1084.98 264.803 1085.98 266.773C1086.98 268.727 1087.48 271.061 1087.48 273.773V296H1077.8V275.5C1077.82 273.364 1077.27 271.697 1076.16 270.5C1075.06 269.288 1073.54 268.682 1071.6 268.682C1070.29 268.682 1069.14 268.962 1068.14 269.523C1067.16 270.083 1066.38 270.902 1065.82 271.977C1065.28 273.038 1065 274.318 1064.98 275.818ZM1113.68 261.091V268.364H1092.66V261.091H1113.68ZM1097.43 252.727H1107.11V285.273C1107.11 286.167 1107.25 286.864 1107.52 287.364C1107.8 287.848 1108.17 288.189 1108.66 288.386C1109.16 288.583 1109.73 288.682 1110.39 288.682C1110.84 288.682 1111.3 288.644 1111.75 288.568C1112.2 288.477 1112.55 288.409 1112.8 288.364L1114.32 295.568C1113.83 295.72 1113.15 295.894 1112.27 296.091C1111.39 296.303 1110.33 296.432 1109.07 296.477C1106.73 296.568 1104.69 296.258 1102.93 295.545C1101.19 294.833 1099.83 293.727 1098.86 292.227C1097.89 290.727 1097.42 288.833 1097.43 286.545V252.727ZM1135.52 296.682C1131.93 296.682 1128.84 295.955 1126.25 294.5C1123.67 293.03 1121.69 290.955 1120.3 288.273C1118.9 285.576 1118.2 282.386 1118.2 278.705C1118.2 275.114 1118.9 271.962 1120.3 269.25C1121.69 266.538 1123.65 264.424 1126.18 262.909C1128.73 261.394 1131.71 260.636 1135.14 260.636C1137.44 260.636 1139.58 261.008 1141.57 261.75C1143.57 262.477 1145.31 263.576 1146.8 265.045C1148.3 266.515 1149.46 268.364 1150.3 270.591C1151.13 272.803 1151.55 275.394 1151.55 278.364V281.023H1122.07V275.023H1142.43C1142.43 273.629 1142.13 272.394 1141.52 271.318C1140.92 270.242 1140.08 269.402 1139 268.795C1137.94 268.174 1136.7 267.864 1135.3 267.864C1133.83 267.864 1132.52 268.205 1131.39 268.886C1130.27 269.553 1129.39 270.455 1128.75 271.591C1128.11 272.712 1127.79 273.962 1127.77 275.341V281.045C1127.77 282.773 1128.09 284.265 1128.73 285.523C1129.38 286.78 1130.3 287.75 1131.48 288.432C1132.66 289.114 1134.06 289.455 1135.68 289.455C1136.76 289.455 1137.74 289.303 1138.64 289C1139.53 288.697 1140.3 288.242 1140.93 287.636C1141.57 287.03 1142.05 286.288 1142.39 285.409L1151.34 286C1150.89 288.152 1149.95 290.03 1148.55 291.636C1147.15 293.227 1145.35 294.47 1143.14 295.364C1140.94 296.242 1138.4 296.682 1135.52 296.682ZM1157.86 296V261.091H1167.25V267.182H1167.61C1168.25 265.015 1169.32 263.379 1170.82 262.273C1172.32 261.152 1174.05 260.591 1176 260.591C1176.48 260.591 1177.01 260.621 1177.57 260.682C1178.13 260.742 1178.62 260.826 1179.05 260.932V269.523C1178.59 269.386 1177.96 269.265 1177.16 269.159C1176.36 269.053 1175.62 269 1174.95 269C1173.53 269 1172.26 269.311 1171.14 269.932C1170.03 270.538 1169.15 271.386 1168.5 272.477C1167.86 273.568 1167.55 274.826 1167.55 276.25V296H1157.86ZM1193.01 296.659C1190.78 296.659 1188.79 296.273 1187.05 295.5C1185.31 294.712 1183.93 293.553 1182.91 292.023C1181.91 290.477 1181.41 288.553 1181.41 286.25C1181.41 284.311 1181.77 282.682 1182.48 281.364C1183.2 280.045 1184.16 278.985 1185.39 278.182C1186.62 277.379 1188.01 276.773 1189.57 276.364C1191.15 275.955 1192.8 275.667 1194.53 275.5C1196.56 275.288 1198.2 275.091 1199.44 274.909C1200.68 274.712 1201.58 274.424 1202.14 274.045C1202.7 273.667 1202.98 273.106 1202.98 272.364V272.227C1202.98 270.788 1202.53 269.674 1201.62 268.886C1200.73 268.098 1199.45 267.705 1197.8 267.705C1196.06 267.705 1194.67 268.091 1193.64 268.864C1192.61 269.621 1191.93 270.576 1191.6 271.727L1182.64 271C1183.1 268.879 1183.99 267.045 1185.32 265.5C1186.66 263.939 1188.38 262.742 1190.48 261.909C1192.6 261.061 1195.06 260.636 1197.85 260.636C1199.79 260.636 1201.64 260.864 1203.41 261.318C1205.2 261.773 1206.79 262.477 1208.16 263.432C1209.56 264.386 1210.66 265.614 1211.46 267.114C1212.26 268.598 1212.66 270.379 1212.66 272.455V296H1203.48V291.159H1203.21C1202.65 292.25 1201.9 293.212 1200.96 294.045C1200.02 294.864 1198.89 295.508 1197.57 295.977C1196.26 296.432 1194.73 296.659 1193.01 296.659ZM1195.78 289.977C1197.2 289.977 1198.46 289.697 1199.55 289.136C1200.64 288.561 1201.5 287.788 1202.12 286.818C1202.74 285.848 1203.05 284.75 1203.05 283.523V279.818C1202.75 280.015 1202.33 280.197 1201.8 280.364C1201.29 280.515 1200.7 280.659 1200.05 280.795C1199.4 280.917 1198.75 281.03 1198.1 281.136C1197.45 281.227 1196.85 281.311 1196.32 281.386C1195.19 281.553 1194.2 281.818 1193.35 282.182C1192.5 282.545 1191.84 283.038 1191.37 283.659C1190.9 284.265 1190.66 285.023 1190.66 285.932C1190.66 287.25 1191.14 288.258 1192.1 288.955C1193.07 289.636 1194.29 289.977 1195.78 289.977ZM1235.95 296.682C1232.37 296.682 1229.3 295.924 1226.72 294.409C1224.16 292.879 1222.19 290.758 1220.81 288.045C1219.45 285.333 1218.77 282.212 1218.77 278.682C1218.77 275.106 1219.46 271.97 1220.84 269.273C1222.23 266.561 1224.21 264.447 1226.77 262.932C1229.33 261.402 1232.37 260.636 1235.9 260.636C1238.95 260.636 1241.62 261.189 1243.9 262.295C1246.19 263.402 1248 264.955 1249.34 266.955C1250.67 268.955 1251.4 271.303 1251.54 274H1242.4C1242.15 272.258 1241.46 270.856 1240.36 269.795C1239.27 268.72 1237.84 268.182 1236.06 268.182C1234.56 268.182 1233.25 268.591 1232.13 269.409C1231.02 270.212 1230.16 271.386 1229.54 272.932C1228.92 274.477 1228.61 276.348 1228.61 278.545C1228.61 280.773 1228.91 282.667 1229.52 284.227C1230.14 285.788 1231.01 286.977 1232.13 287.795C1233.25 288.614 1234.56 289.023 1236.06 289.023C1237.17 289.023 1238.16 288.795 1239.04 288.341C1239.93 287.886 1240.67 287.227 1241.24 286.364C1241.84 285.485 1242.22 284.432 1242.4 283.205H1251.54C1251.39 285.871 1250.66 288.22 1249.36 290.25C1248.07 292.265 1246.29 293.841 1244.02 294.977C1241.74 296.114 1239.05 296.682 1235.95 296.682ZM1276.31 261.091V268.364H1255.28V261.091H1276.31ZM1260.06 252.727H1269.74V285.273C1269.74 286.167 1269.88 286.864 1270.15 287.364C1270.42 287.848 1270.8 288.189 1271.28 288.386C1271.78 288.583 1272.36 288.682 1273.01 288.682C1273.47 288.682 1273.92 288.644 1274.38 288.568C1274.83 288.477 1275.18 288.409 1275.42 288.364L1276.94 295.568C1276.46 295.72 1275.78 295.894 1274.9 296.091C1274.02 296.303 1272.95 296.432 1271.69 296.477C1269.36 296.568 1267.31 296.258 1265.56 295.545C1263.81 294.833 1262.46 293.727 1261.49 292.227C1260.52 290.727 1260.04 288.833 1260.06 286.545V252.727ZM1282.61 296V261.091H1292.3V296H1282.61ZM1287.48 256.591C1286.04 256.591 1284.8 256.114 1283.77 255.159C1282.76 254.189 1282.25 253.03 1282.25 251.682C1282.25 250.348 1282.76 249.205 1283.77 248.25C1284.8 247.28 1286.04 246.795 1287.48 246.795C1288.92 246.795 1290.14 247.28 1291.16 248.25C1292.19 249.205 1292.7 250.348 1292.7 251.682C1292.7 253.03 1292.19 254.189 1291.16 255.159C1290.14 256.114 1288.92 256.591 1287.48 256.591ZM1332.6 261.091L1320.39 296H1309.48L1297.28 261.091H1307.51L1314.76 286.068H1315.12L1322.35 261.091H1332.6ZM1352.34 296.682C1348.74 296.682 1345.65 295.955 1343.06 294.5C1340.49 293.03 1338.5 290.955 1337.11 288.273C1335.71 285.576 1335.02 282.386 1335.02 278.705C1335.02 275.114 1335.71 271.962 1337.11 269.25C1338.5 266.538 1340.46 264.424 1342.99 262.909C1345.54 261.394 1348.52 260.636 1351.95 260.636C1354.25 260.636 1356.4 261.008 1358.38 261.75C1360.38 262.477 1362.12 263.576 1363.61 265.045C1365.11 266.515 1366.27 268.364 1367.11 270.591C1367.94 272.803 1368.36 275.394 1368.36 278.364V281.023H1338.88V275.023H1359.24C1359.24 273.629 1358.94 272.394 1358.34 271.318C1357.73 270.242 1356.89 269.402 1355.81 268.795C1354.75 268.174 1353.52 267.864 1352.11 267.864C1350.64 267.864 1349.34 268.205 1348.2 268.886C1347.08 269.553 1346.2 270.455 1345.56 271.591C1344.93 272.712 1344.6 273.962 1344.59 275.341V281.045C1344.59 282.773 1344.9 284.265 1345.54 285.523C1346.19 286.78 1347.11 287.75 1348.29 288.432C1349.47 289.114 1350.87 289.455 1352.49 289.455C1353.57 289.455 1354.55 289.303 1355.45 289C1356.34 288.697 1357.11 288.242 1357.74 287.636C1358.38 287.03 1358.87 286.288 1359.2 285.409L1368.15 286C1367.7 288.152 1366.77 290.03 1365.36 291.636C1363.96 293.227 1362.16 294.47 1359.95 295.364C1357.75 296.242 1355.21 296.682 1352.34 296.682ZM1389.67 296V249.455H1408.03C1411.56 249.455 1414.57 250.129 1417.06 251.477C1419.54 252.811 1421.44 254.667 1422.74 257.045C1424.06 259.409 1424.72 262.136 1424.72 265.227C1424.72 268.318 1424.05 271.045 1422.72 273.409C1421.38 275.773 1419.45 277.614 1416.92 278.932C1414.41 280.25 1411.36 280.909 1407.78 280.909H1396.08V273.023H1406.19C1408.09 273.023 1409.65 272.697 1410.88 272.045C1412.12 271.379 1413.04 270.462 1413.65 269.295C1414.27 268.114 1414.58 266.758 1414.58 265.227C1414.58 263.682 1414.27 262.333 1413.65 261.182C1413.04 260.015 1412.12 259.114 1410.88 258.477C1409.63 257.826 1408.06 257.5 1406.15 257.5H1399.51V296H1389.67ZM1430.93 296V261.091H1440.31V267.182H1440.68C1441.31 265.015 1442.38 263.379 1443.88 262.273C1445.38 261.152 1447.11 260.591 1449.06 260.591C1449.55 260.591 1450.07 260.621 1450.63 260.682C1451.19 260.742 1451.68 260.826 1452.11 260.932V269.523C1451.65 269.386 1451.02 269.265 1450.22 269.159C1449.42 269.053 1448.68 269 1448.02 269C1446.59 269 1445.32 269.311 1444.2 269.932C1443.09 270.538 1442.21 271.386 1441.56 272.477C1440.93 273.568 1440.61 274.826 1440.61 276.25V296H1430.93ZM1471.26 296.682C1467.73 296.682 1464.68 295.932 1462.1 294.432C1459.54 292.917 1457.56 290.811 1456.17 288.114C1454.78 285.402 1454.08 282.258 1454.08 278.682C1454.08 275.076 1454.78 271.924 1456.17 269.227C1457.56 266.515 1459.54 264.409 1462.1 262.909C1464.68 261.394 1467.73 260.636 1471.26 260.636C1474.79 260.636 1477.84 261.394 1480.4 262.909C1482.97 264.409 1484.96 266.515 1486.35 269.227C1487.75 271.924 1488.44 275.076 1488.44 278.682C1488.44 282.258 1487.75 285.402 1486.35 288.114C1484.96 290.811 1482.97 292.917 1480.4 294.432C1477.84 295.932 1474.79 296.682 1471.26 296.682ZM1471.31 289.182C1472.91 289.182 1474.25 288.727 1475.33 287.818C1476.41 286.894 1477.22 285.636 1477.76 284.045C1478.32 282.455 1478.6 280.644 1478.6 278.614C1478.6 276.583 1478.32 274.773 1477.76 273.182C1477.22 271.591 1476.41 270.333 1475.33 269.409C1474.25 268.485 1472.91 268.023 1471.31 268.023C1469.69 268.023 1468.32 268.485 1467.22 269.409C1466.13 270.333 1465.3 271.591 1464.74 273.182C1464.19 274.773 1463.92 276.583 1463.92 278.614C1463.92 280.644 1464.19 282.455 1464.74 284.045C1465.3 285.636 1466.13 286.894 1467.22 287.818C1468.32 288.727 1469.69 289.182 1471.31 289.182ZM1494.92 296V249.455H1504.6V266.955H1504.9C1505.32 266.015 1505.94 265.061 1506.74 264.091C1507.56 263.106 1508.62 262.288 1509.92 261.636C1511.24 260.97 1512.88 260.636 1514.83 260.636C1517.38 260.636 1519.72 261.303 1521.88 262.636C1524.03 263.955 1525.75 265.947 1527.03 268.614C1528.32 271.265 1528.97 274.591 1528.97 278.591C1528.97 282.485 1528.34 285.773 1527.08 288.455C1525.84 291.121 1524.14 293.144 1521.99 294.523C1519.85 295.886 1517.46 296.568 1514.81 296.568C1512.93 296.568 1511.33 296.258 1510.01 295.636C1508.71 295.015 1507.64 294.235 1506.81 293.295C1505.97 292.341 1505.34 291.379 1504.9 290.409H1504.47V296H1494.92ZM1504.4 278.545C1504.4 280.621 1504.69 282.432 1505.26 283.977C1505.84 285.523 1506.67 286.727 1507.76 287.591C1508.85 288.439 1510.18 288.864 1511.74 288.864C1513.31 288.864 1514.65 288.432 1515.74 287.568C1516.83 286.689 1517.66 285.477 1518.22 283.932C1518.79 282.371 1519.08 280.576 1519.08 278.545C1519.08 276.53 1518.8 274.758 1518.24 273.227C1517.68 271.697 1516.85 270.5 1515.76 269.636C1514.67 268.773 1513.33 268.341 1511.74 268.341C1510.16 268.341 1508.83 268.758 1507.74 269.591C1506.66 270.424 1505.84 271.606 1505.26 273.136C1504.69 274.667 1504.4 276.47 1504.4 278.545ZM1545.11 249.455V296H1535.43V249.455H1545.11ZM1568.77 296.682C1565.18 296.682 1562.09 295.955 1559.5 294.5C1556.92 293.03 1554.94 290.955 1553.55 288.273C1552.15 285.576 1551.45 282.386 1551.45 278.705C1551.45 275.114 1552.15 271.962 1553.55 269.25C1554.94 266.538 1556.9 264.424 1559.43 262.909C1561.98 261.394 1564.96 260.636 1568.39 260.636C1570.69 260.636 1572.83 261.008 1574.82 261.75C1576.82 262.477 1578.56 263.576 1580.05 265.045C1581.55 266.515 1582.71 268.364 1583.55 270.591C1584.38 272.803 1584.8 275.394 1584.8 278.364V281.023H1555.32V275.023H1575.68C1575.68 273.629 1575.38 272.394 1574.77 271.318C1574.17 270.242 1573.33 269.402 1572.25 268.795C1571.19 268.174 1569.95 267.864 1568.55 267.864C1567.08 267.864 1565.77 268.205 1564.64 268.886C1563.52 269.553 1562.64 270.455 1562 271.591C1561.36 272.712 1561.04 273.962 1561.02 275.341V281.045C1561.02 282.773 1561.34 284.265 1561.98 285.523C1562.63 286.78 1563.55 287.75 1564.73 288.432C1565.91 289.114 1567.31 289.455 1568.93 289.455C1570.01 289.455 1570.99 289.303 1571.89 289C1572.78 288.697 1573.55 288.242 1574.18 287.636C1574.82 287.03 1575.3 286.288 1575.64 285.409L1584.59 286C1584.14 288.152 1583.2 290.03 1581.8 291.636C1580.4 293.227 1578.6 294.47 1576.39 295.364C1574.19 296.242 1571.65 296.682 1568.77 296.682ZM1591.11 296V261.091H1600.34V267.25H1600.75C1601.48 265.205 1602.69 263.591 1604.39 262.409C1606.08 261.227 1608.11 260.636 1610.48 260.636C1612.87 260.636 1614.91 261.235 1616.59 262.432C1618.27 263.614 1619.39 265.22 1619.95 267.25H1620.32C1621.03 265.25 1622.32 263.652 1624.18 262.455C1626.06 261.242 1628.28 260.636 1630.84 260.636C1634.1 260.636 1636.74 261.674 1638.77 263.75C1640.82 265.811 1641.84 268.735 1641.84 272.523V296H1632.18V274.432C1632.18 272.492 1631.67 271.038 1630.64 270.068C1629.61 269.098 1628.32 268.614 1626.77 268.614C1625.02 268.614 1623.64 269.174 1622.66 270.295C1621.67 271.402 1621.18 272.864 1621.18 274.682V296H1611.8V274.227C1611.8 272.515 1611.3 271.152 1610.32 270.136C1609.35 269.121 1608.07 268.614 1606.48 268.614C1605.4 268.614 1604.43 268.886 1603.57 269.432C1602.72 269.962 1602.05 270.712 1601.55 271.682C1601.05 272.636 1600.8 273.758 1600.8 275.045V296H1591.11ZM960.295 339.841C960.114 338.008 959.333 336.583 957.955 335.568C956.576 334.553 954.705 334.045 952.341 334.045C950.735 334.045 949.379 334.273 948.273 334.727C947.167 335.167 946.318 335.78 945.727 336.568C945.152 337.356 944.864 338.25 944.864 339.25C944.833 340.083 945.008 340.811 945.386 341.432C945.78 342.053 946.318 342.591 947 343.045C947.682 343.485 948.47 343.871 949.364 344.205C950.258 344.523 951.212 344.795 952.227 345.023L956.409 346.023C958.439 346.477 960.303 347.083 962 347.841C963.697 348.598 965.167 349.53 966.409 350.636C967.652 351.742 968.614 353.045 969.295 354.545C969.992 356.045 970.348 357.765 970.364 359.705C970.348 362.553 969.621 365.023 968.182 367.114C966.758 369.189 964.697 370.803 962 371.955C959.318 373.091 956.083 373.659 952.295 373.659C948.538 373.659 945.265 373.083 942.477 371.932C939.705 370.78 937.538 369.076 935.977 366.818C934.432 364.545 933.621 361.735 933.545 358.386H943.068C943.174 359.947 943.621 361.25 944.409 362.295C945.212 363.326 946.28 364.106 947.614 364.636C948.962 365.152 950.485 365.409 952.182 365.409C953.848 365.409 955.295 365.167 956.523 364.682C957.765 364.197 958.727 363.523 959.409 362.659C960.091 361.795 960.432 360.803 960.432 359.682C960.432 358.636 960.121 357.758 959.5 357.045C958.894 356.333 958 355.727 956.818 355.227C955.652 354.727 954.22 354.273 952.523 353.864L947.455 352.591C943.53 351.636 940.432 350.144 938.159 348.114C935.886 346.083 934.758 343.348 934.773 339.909C934.758 337.091 935.508 334.629 937.023 332.523C938.553 330.417 940.652 328.773 943.318 327.591C945.985 326.409 949.015 325.818 952.409 325.818C955.864 325.818 958.879 326.409 961.455 327.591C964.045 328.773 966.061 330.417 967.5 332.523C968.939 334.629 969.682 337.068 969.727 339.841H960.295ZM992.574 373.682C989.044 373.682 985.991 372.932 983.415 371.432C980.854 369.917 978.877 367.811 977.483 365.114C976.089 362.402 975.392 359.258 975.392 355.682C975.392 352.076 976.089 348.924 977.483 346.227C978.877 343.515 980.854 341.409 983.415 339.909C985.991 338.394 989.044 337.636 992.574 337.636C996.104 337.636 999.15 338.394 1001.71 339.909C1004.29 341.409 1006.27 343.515 1007.66 346.227C1009.06 348.924 1009.76 352.076 1009.76 355.682C1009.76 359.258 1009.06 362.402 1007.66 365.114C1006.27 367.811 1004.29 369.917 1001.71 371.432C999.15 372.932 996.104 373.682 992.574 373.682ZM992.619 366.182C994.225 366.182 995.566 365.727 996.642 364.818C997.718 363.894 998.528 362.636 999.074 361.045C999.634 359.455 999.915 357.644 999.915 355.614C999.915 353.583 999.634 351.773 999.074 350.182C998.528 348.591 997.718 347.333 996.642 346.409C995.566 345.485 994.225 345.023 992.619 345.023C990.998 345.023 989.634 345.485 988.528 346.409C987.438 347.333 986.612 348.591 986.051 350.182C985.506 351.773 985.233 353.583 985.233 355.614C985.233 357.644 985.506 359.455 986.051 361.045C986.612 362.636 987.438 363.894 988.528 364.818C989.634 365.727 990.998 366.182 992.619 366.182ZM1025.73 326.455V373H1016.05V326.455H1025.73ZM1066.03 338.091L1053.83 373H1042.92L1030.72 338.091H1040.94L1048.19 363.068H1048.56L1055.78 338.091H1066.03ZM1070.99 373V338.091H1080.67V373H1070.99ZM1075.85 333.591C1074.41 333.591 1073.18 333.114 1072.15 332.159C1071.13 331.189 1070.62 330.03 1070.62 328.682C1070.62 327.348 1071.13 326.205 1072.15 325.25C1073.18 324.28 1074.41 323.795 1075.85 323.795C1077.29 323.795 1078.52 324.28 1079.53 325.25C1080.56 326.205 1081.08 327.348 1081.08 328.682C1081.08 330.03 1080.56 331.189 1079.53 332.159C1078.52 333.114 1077.29 333.591 1075.85 333.591ZM1098.11 352.818V373H1088.43V338.091H1097.65V344.25H1098.06C1098.84 342.22 1100.13 340.614 1101.95 339.432C1103.77 338.235 1105.97 337.636 1108.56 337.636C1110.99 337.636 1113.1 338.167 1114.9 339.227C1116.71 340.288 1118.11 341.803 1119.11 343.773C1120.11 345.727 1120.61 348.061 1120.61 350.773V373H1110.93V352.5C1110.94 350.364 1110.4 348.697 1109.29 347.5C1108.18 346.288 1106.66 345.682 1104.72 345.682C1103.42 345.682 1102.27 345.962 1101.27 346.523C1100.28 347.083 1099.51 347.902 1098.95 348.977C1098.4 350.038 1098.12 351.318 1098.11 352.818ZM1143.97 386.818C1140.83 386.818 1138.14 386.386 1135.9 385.523C1133.67 384.674 1131.9 383.515 1130.58 382.045C1129.26 380.576 1128.41 378.924 1128.01 377.091L1136.97 375.886C1137.24 376.583 1137.67 377.235 1138.26 377.841C1138.85 378.447 1139.63 378.932 1140.6 379.295C1141.59 379.674 1142.78 379.864 1144.19 379.864C1146.3 379.864 1148.03 379.348 1149.4 378.318C1150.78 377.303 1151.47 375.598 1151.47 373.205V366.818H1151.06C1150.63 367.788 1150 368.705 1149.15 369.568C1148.3 370.432 1147.21 371.136 1145.88 371.682C1144.54 372.227 1142.95 372.5 1141.1 372.5C1138.48 372.5 1136.09 371.894 1133.94 370.682C1131.81 369.455 1130.1 367.583 1128.83 365.068C1127.57 362.538 1126.94 359.341 1126.94 355.477C1126.94 351.523 1127.59 348.22 1128.88 345.568C1130.16 342.917 1131.88 340.932 1134.01 339.614C1136.16 338.295 1138.52 337.636 1141.08 337.636C1143.03 337.636 1144.67 337.97 1145.99 338.636C1147.31 339.288 1148.37 340.106 1149.17 341.091C1149.99 342.061 1150.62 343.015 1151.06 343.955H1151.42V338.091H1161.03V373.341C1161.03 376.311 1160.31 378.795 1158.85 380.795C1157.4 382.795 1155.38 384.295 1152.81 385.295C1150.25 386.311 1147.3 386.818 1143.97 386.818ZM1144.17 365.227C1145.73 365.227 1147.05 364.841 1148.12 364.068C1149.22 363.28 1150.05 362.159 1150.62 360.705C1151.22 359.235 1151.51 357.477 1151.51 355.432C1151.51 353.386 1151.22 351.614 1150.65 350.114C1150.07 348.598 1149.24 347.424 1148.15 346.591C1147.06 345.758 1145.73 345.341 1144.17 345.341C1142.58 345.341 1141.24 345.773 1140.15 346.636C1139.06 347.485 1138.23 348.667 1137.67 350.182C1137.11 351.697 1136.83 353.447 1136.83 355.432C1136.83 357.447 1137.11 359.189 1137.67 360.659C1138.25 362.114 1139.07 363.242 1140.15 364.045C1141.24 364.833 1142.58 365.227 1144.17 365.227ZM1191.76 373H1181.21L1197.28 326.455H1209.96L1226.01 373H1215.46L1203.8 337.091H1203.44L1191.76 373ZM1191.1 354.705H1216.01V362.386H1191.1V354.705ZM1231.43 386.091V338.091H1240.97V343.955H1241.4C1241.83 343.015 1242.44 342.061 1243.24 341.091C1244.06 340.106 1245.12 339.288 1246.43 338.636C1247.74 337.97 1249.38 337.636 1251.34 337.636C1253.88 337.636 1256.23 338.303 1258.38 339.636C1260.53 340.955 1262.25 342.947 1263.54 345.614C1264.83 348.265 1265.47 351.591 1265.47 355.591C1265.47 359.485 1264.84 362.773 1263.59 365.455C1262.34 368.121 1260.65 370.144 1258.49 371.523C1256.36 372.886 1253.96 373.568 1251.31 373.568C1249.43 373.568 1247.84 373.258 1246.52 372.636C1245.21 372.015 1244.15 371.235 1243.31 370.295C1242.48 369.341 1241.84 368.379 1241.4 367.409H1241.11V386.091H1231.43ZM1240.9 355.545C1240.9 357.621 1241.19 359.432 1241.77 360.977C1242.34 362.523 1243.18 363.727 1244.27 364.591C1245.36 365.439 1246.68 365.864 1248.24 365.864C1249.82 365.864 1251.15 365.432 1252.24 364.568C1253.34 363.689 1254.16 362.477 1254.72 360.932C1255.3 359.371 1255.59 357.576 1255.59 355.545C1255.59 353.53 1255.3 351.758 1254.74 350.227C1254.18 348.697 1253.36 347.5 1252.27 346.636C1251.18 345.773 1249.84 345.341 1248.24 345.341C1246.67 345.341 1245.34 345.758 1244.24 346.591C1243.17 347.424 1242.34 348.606 1241.77 350.136C1241.19 351.667 1240.9 353.47 1240.9 355.545ZM1271.93 386.091V338.091H1281.47V343.955H1281.9C1282.33 343.015 1282.94 342.061 1283.74 341.091C1284.56 340.106 1285.62 339.288 1286.93 338.636C1288.24 337.97 1289.88 337.636 1291.84 337.636C1294.38 337.636 1296.73 338.303 1298.88 339.636C1301.03 340.955 1302.75 342.947 1304.04 345.614C1305.33 348.265 1305.97 351.591 1305.97 355.591C1305.97 359.485 1305.34 362.773 1304.09 365.455C1302.84 368.121 1301.15 370.144 1298.99 371.523C1296.86 372.886 1294.46 373.568 1291.81 373.568C1289.93 373.568 1288.34 373.258 1287.02 372.636C1285.71 372.015 1284.65 371.235 1283.81 370.295C1282.98 369.341 1282.34 368.379 1281.9 367.409H1281.61V386.091H1271.93ZM1281.4 355.545C1281.4 357.621 1281.69 359.432 1282.27 360.977C1282.84 362.523 1283.68 363.727 1284.77 364.591C1285.86 365.439 1287.18 365.864 1288.74 365.864C1290.32 365.864 1291.65 365.432 1292.74 364.568C1293.84 363.689 1294.66 362.477 1295.22 360.932C1295.8 359.371 1296.09 357.576 1296.09 355.545C1296.09 353.53 1295.8 351.758 1295.24 350.227C1294.68 348.697 1293.86 347.5 1292.77 346.636C1291.68 345.773 1290.34 345.341 1288.74 345.341C1287.17 345.341 1285.84 345.758 1284.74 346.591C1283.67 347.424 1282.84 348.606 1282.27 350.136C1281.69 351.667 1281.4 353.47 1281.4 355.545ZM1322.11 326.455V373H1312.43V326.455H1322.11ZM1329.86 373V338.091H1339.55V373H1329.86ZM1334.73 333.591C1333.29 333.591 1332.05 333.114 1331.02 332.159C1330.01 331.189 1329.5 330.03 1329.5 328.682C1329.5 327.348 1330.01 326.205 1331.02 325.25C1332.05 324.28 1333.29 323.795 1334.73 323.795C1336.17 323.795 1337.39 324.28 1338.41 325.25C1339.44 326.205 1339.95 327.348 1339.95 328.682C1339.95 330.03 1339.44 331.189 1338.41 332.159C1337.39 333.114 1336.17 333.591 1334.73 333.591ZM1363.07 373.682C1359.5 373.682 1356.42 372.924 1353.85 371.409C1351.29 369.879 1349.32 367.758 1347.94 365.045C1346.57 362.333 1345.89 359.212 1345.89 355.682C1345.89 352.106 1346.58 348.97 1347.96 346.273C1349.35 343.561 1351.33 341.447 1353.89 339.932C1356.45 338.402 1359.5 337.636 1363.03 337.636C1366.07 337.636 1368.74 338.189 1371.03 339.295C1373.32 340.402 1375.13 341.955 1376.46 343.955C1377.79 345.955 1378.53 348.303 1378.66 351H1369.53C1369.27 349.258 1368.59 347.856 1367.48 346.795C1366.39 345.72 1364.96 345.182 1363.19 345.182C1361.69 345.182 1360.38 345.591 1359.26 346.409C1358.15 347.212 1357.29 348.386 1356.66 349.932C1356.04 351.477 1355.73 353.348 1355.73 355.545C1355.73 357.773 1356.04 359.667 1356.64 361.227C1357.26 362.788 1358.13 363.977 1359.26 364.795C1360.38 365.614 1361.69 366.023 1363.19 366.023C1364.29 366.023 1365.29 365.795 1366.16 365.341C1367.06 364.886 1367.79 364.227 1368.37 363.364C1368.96 362.485 1369.35 361.432 1369.53 360.205H1378.66C1378.51 362.871 1377.79 365.22 1376.48 367.25C1375.2 369.265 1373.41 370.841 1371.14 371.977C1368.87 373.114 1366.18 373.682 1363.07 373.682ZM1394.82 373.659C1392.59 373.659 1390.61 373.273 1388.86 372.5C1387.12 371.712 1385.74 370.553 1384.73 369.023C1383.73 367.477 1383.23 365.553 1383.23 363.25C1383.23 361.311 1383.58 359.682 1384.3 358.364C1385.01 357.045 1385.98 355.985 1387.2 355.182C1388.43 354.379 1389.83 353.773 1391.39 353.364C1392.96 352.955 1394.61 352.667 1396.34 352.5C1398.37 352.288 1400.01 352.091 1401.25 351.909C1402.49 351.712 1403.39 351.424 1403.95 351.045C1404.52 350.667 1404.8 350.106 1404.8 349.364V349.227C1404.8 347.788 1404.34 346.674 1403.43 345.886C1402.54 345.098 1401.27 344.705 1399.61 344.705C1397.87 344.705 1396.48 345.091 1395.45 345.864C1394.42 346.621 1393.74 347.576 1393.41 348.727L1384.45 348C1384.91 345.879 1385.8 344.045 1387.14 342.5C1388.47 340.939 1390.19 339.742 1392.3 338.909C1394.42 338.061 1396.87 337.636 1399.66 337.636C1401.6 337.636 1403.45 337.864 1405.23 338.318C1407.02 338.773 1408.6 339.477 1409.98 340.432C1411.37 341.386 1412.47 342.614 1413.27 344.114C1414.08 345.598 1414.48 347.379 1414.48 349.455V373H1405.3V368.159H1405.02C1404.46 369.25 1403.71 370.212 1402.77 371.045C1401.83 371.864 1400.7 372.508 1399.39 372.977C1398.07 373.432 1396.55 373.659 1394.82 373.659ZM1397.59 366.977C1399.02 366.977 1400.27 366.697 1401.36 366.136C1402.45 365.561 1403.31 364.788 1403.93 363.818C1404.55 362.848 1404.86 361.75 1404.86 360.523V356.818C1404.56 357.015 1404.14 357.197 1403.61 357.364C1403.1 357.515 1402.52 357.659 1401.86 357.795C1401.21 357.917 1400.56 358.03 1399.91 358.136C1399.26 358.227 1398.67 358.311 1398.14 358.386C1397 358.553 1396.01 358.818 1395.16 359.182C1394.31 359.545 1393.65 360.038 1393.18 360.659C1392.71 361.265 1392.48 362.023 1392.48 362.932C1392.48 364.25 1392.95 365.258 1393.91 365.955C1394.88 366.636 1396.11 366.977 1397.59 366.977ZM1440.56 338.091V345.364H1419.53V338.091H1440.56ZM1424.31 329.727H1433.99V362.273C1433.99 363.167 1434.13 363.864 1434.4 364.364C1434.67 364.848 1435.05 365.189 1435.53 365.386C1436.03 365.583 1436.61 365.682 1437.26 365.682C1437.72 365.682 1438.17 365.644 1438.62 365.568C1439.08 365.477 1439.43 365.409 1439.67 365.364L1441.19 372.568C1440.71 372.72 1440.03 372.894 1439.15 373.091C1438.27 373.303 1437.2 373.432 1435.94 373.477C1433.61 373.568 1431.56 373.258 1429.81 372.545C1428.06 371.833 1426.71 370.727 1425.74 369.227C1424.77 367.727 1424.29 365.833 1424.31 363.545V329.727ZM1446.86 373V338.091H1456.55V373H1446.86ZM1451.73 333.591C1450.29 333.591 1449.05 333.114 1448.02 332.159C1447.01 331.189 1446.5 330.03 1446.5 328.682C1446.5 327.348 1447.01 326.205 1448.02 325.25C1449.05 324.28 1450.29 323.795 1451.73 323.795C1453.17 323.795 1454.39 324.28 1455.41 325.25C1456.44 326.205 1456.95 327.348 1456.95 328.682C1456.95 330.03 1456.44 331.189 1455.41 332.159C1454.39 333.114 1453.17 333.591 1451.73 333.591ZM1480.07 373.682C1476.54 373.682 1473.49 372.932 1470.91 371.432C1468.35 369.917 1466.38 367.811 1464.98 365.114C1463.59 362.402 1462.89 359.258 1462.89 355.682C1462.89 352.076 1463.59 348.924 1464.98 346.227C1466.38 343.515 1468.35 341.409 1470.91 339.909C1473.49 338.394 1476.54 337.636 1480.07 337.636C1483.6 337.636 1486.65 338.394 1489.21 339.909C1491.79 341.409 1493.77 343.515 1495.16 346.227C1496.56 348.924 1497.26 352.076 1497.26 355.682C1497.26 359.258 1496.56 362.402 1495.16 365.114C1493.77 367.811 1491.79 369.917 1489.21 371.432C1486.65 372.932 1483.6 373.682 1480.07 373.682ZM1480.12 366.182C1481.73 366.182 1483.07 365.727 1484.14 364.818C1485.22 363.894 1486.03 362.636 1486.57 361.045C1487.13 359.455 1487.41 357.644 1487.41 355.614C1487.41 353.583 1487.13 351.773 1486.57 350.182C1486.03 348.591 1485.22 347.333 1484.14 346.409C1483.07 345.485 1481.73 345.023 1480.12 345.023C1478.5 345.023 1477.13 345.485 1476.03 346.409C1474.94 347.333 1474.11 348.591 1473.55 350.182C1473.01 351.773 1472.73 353.583 1472.73 355.614C1472.73 357.644 1473.01 359.455 1473.55 361.045C1474.11 362.636 1474.94 363.894 1476.03 364.818C1477.13 365.727 1478.5 366.182 1480.12 366.182ZM1513.23 352.818V373H1503.55V338.091H1512.78V344.25H1513.19C1513.96 342.22 1515.26 340.614 1517.07 339.432C1518.89 338.235 1521.1 337.636 1523.69 337.636C1526.11 337.636 1528.23 338.167 1530.03 339.227C1531.83 340.288 1533.23 341.803 1534.23 343.773C1535.23 345.727 1535.73 348.061 1535.73 350.773V373H1526.05V352.5C1526.07 350.364 1525.52 348.697 1524.41 347.5C1523.31 346.288 1521.79 345.682 1519.85 345.682C1518.54 345.682 1517.39 345.962 1516.39 346.523C1515.41 347.083 1514.63 347.902 1514.07 348.977C1513.53 350.038 1513.25 351.318 1513.23 352.818Z" fill="#13375B"/>
</svg>
